<svg viewBox="0 0 65 67"><g><path d="M41.901,60.842c0.616,2.427,3.896,2.626,5.475,2.792c11.288,1.182,17.612,3.247,17.555-7.983   c-0.026-9.62,0.507-13.032-2.142-14.134c-2.313-0.963-5.103,1.763-7.074,3.814c-6.809-6.708-8.906-10.787-16.116-3.582   c-2.525,2.525-2.83,4.38,0.238,7.22c1.686,1.567,2.8,2.614,6.089,5.693C43.731,56.732,41.319,58.572,41.901,60.842z M45.103,62.288   l1.165-1.165c0.117,0.117,1.319,1.381,1.485,1.381c0.062,0,0.123-0.025,0.172-0.071c0.099,0.179,0.276,0.165,0.379,0.062   l1.424-1.424l1.247,1.247c0,0.869,1.418-0.815,2.419-1.815l1.298,1.298l-0.133,0.133c-0.158,0.158-0.044,0.427,0.177,0.427   c0.064,0,0.128-0.024,0.177-0.073l0.133-0.133l1.394,1.394C55.437,63.477,46.355,62.609,45.103,62.288z M48.157,59.501l1.217,1.217   l-1.419,1.419c-0.07-0.124-1.232-1.267-1.333-1.368l1.473-1.473C48.086,59.37,48.101,59.444,48.157,59.501z M51.977,59.087   l1.062,1.062l-1.763,1.763l-1.195-1.195l1.834-1.834C51.907,58.957,51.921,59.031,51.977,59.087z M55.987,57.91   c0.079,0.117,1.186,1.211,1.286,1.311l-2.228,2.228l-1.298-1.298L55.987,57.91z M57.189,63.592l-1.791-1.791l2.228-2.228   l1.557,1.557l-1.32,1.32c-0.232,0.232,0.119,0.588,0.354,0.354l1.32-1.32l1.502,1.502C59.911,63.517,58.562,63.642,57.189,63.592z    M59.618,57.539l1.578,1.578l-1.66,1.66l-1.557-1.557C58.083,59.117,59.556,57.668,59.618,57.539z M62.678,50.702l1.237-1.237   l0.007,2.48L62.678,50.702z M47.164,54.627c-0.016-0.279-0.15-0.308-0.308-0.462l-2.154-2.017c-4.693-4.398-6.115-5.37-6.071-6.96   c0.051-1.693,3.551-4.648,4.827-5.383c4.319-2.486,6.141,1.059,10.866,5.574c0.351,0.336,0.704,0.673,1.042,1.018   c0.094,0.096,0.223,0.15,0.357,0.15c0.107,0.013,0.267-0.056,0.361-0.154c1.684-1.76,4.501-4.703,6.321-3.952   c1.776,0.74,1.501,3.939,1.507,6.32l-1.589,1.588l-0.184-0.184c-0.232-0.232-0.588,0.119-0.354,0.354l1.32,1.32l-1.32,1.32   c-0.232,0.232,0.119,0.588,0.354,0.354l1.32-1.32l0.463,0.463c0.012,4.516,0.387,8.406-2.457,10.123   c-0.037-0.146-1.47-1.54-1.576-1.646l1.66-1.66c0.255,0.255,0.671,0.808,0.916,0.563c0.257-0.257-0.289-0.643-0.563-0.916   l0.291-0.291c0.232-0.232-0.119-0.588-0.354-0.354l-0.291,0.291l-1.991-1.991c-0.098-0.098-0.256-0.098-0.354,0   c-0.17,0.17-0.042,0.312,0.103,0.457c-0.129,0.062-1.578,1.535-1.682,1.638l-1.269-1.269c-0.093-0.093-0.237-0.091-0.335-0.008   c-0.103-0.165-0.273-0.151-0.374-0.05l-2.255,2.255l-1.062-1.062c-0.056-0.056-0.131-0.071-0.204-0.062l0.714-0.714   c0.232-0.232-0.119-0.588-0.354-0.354l-2.759,2.759l-1.217-1.217c-0.056-0.056-0.131-0.071-0.204-0.062l2.019-2.019   c0.232-0.232-0.119-0.588-0.354-0.354l-3.703,3.703c-0.273-0.273-0.646-0.8-0.9-0.546c-0.254,0.254,0.273,0.627,0.546,0.9   c-0.104,0.104-1.263,1.23-1.31,1.369c-0.983-0.34-1.558-0.85-1.734-1.544C42.251,58.179,47.221,55.627,47.164,54.627z"/><path d="M3.183,24.51c2.313,0.958,5.103-1.763,7.074-3.814c6.72,6.621,8.911,10.787,16.116,3.582   c4.364-4.364,1.277-5.796-6.328-12.914l1.963-1.848c3.827-3.61,2.324-6.536-2.599-7.037l-0.583-0.062   c-2.662-0.279-5.313-0.558-7.964-0.825C3.441,0.8,1.006,3.15,1.041,10.376l0.025,9.272C1.079,21.362,1.313,23.732,3.183,24.51z    M10.758,2.587c0.001,0,0.002,0,0.003,0c2.65,0.268,5.301,0.545,7.961,0.825l0.584,0.062c4.024,0.41,5.222,2.289,2.017,5.313   l-2.358,2.221c-0.108,0.101-0.166,0.245-0.157,0.393c0.015,0.278,0.15,0.309,0.308,0.462c8.085,7.57,10.096,8.162,6.55,11.708   c-1.517,1.517-3.069,3.073-5.218,3.384c-0.028-0.15-2.301-2.379-2.409-2.487l2.845-2.845c0.232-0.232-0.119-0.588-0.354-0.354   l-2.845,2.845c-0.273-0.273-0.637-0.788-0.889-0.536s0.263,0.617,0.536,0.889l-0.156,0.156c-0.158,0.158-0.044,0.427,0.177,0.427   c0.138,0,0.224-0.12,0.333-0.229l2.178,2.178c-1.974,0.025-2.695-0.674-9.257-7.368c-0.199-0.203-0.526-0.198-0.719,0.004   c-1.682,1.761-4.494,4.703-6.321,3.951c-1.007-0.419-1.484-1.673-1.501-3.945l-0.025-9.271C2.01,3.875,3.843,1.841,10.758,2.587z"/><path d="M41.723,26.4c4.379,4.379,5.82,1.25,12.914-6.327c2.071,2.199,3.908,4.609,6.178,4.026   c2.291-0.582,2.604-3.654,2.707-4.662l0.055-0.522c0.281-2.682,0.562-5.353,0.831-8.023c0.802-7.471-1.642-9.88-8.783-9.823   c-9.592,0.026-13.03-0.51-14.134,2.142c-0.96,2.313,1.763,5.103,3.814,7.074C38.936,16.765,34.391,19.075,41.723,26.4z    M48.359,25.323c0.075-0.098,0.078-0.235-0.012-0.325l-1.524-1.524l2.141-2.141l0.6,0.6c-0.048,0.201,0.105,0.335,0.299,0.299   l0.716,0.716C49.838,23.739,49.098,24.529,48.359,25.323z M51.082,19.215l0.585,0.585l-1.765,1.765l-0.585-0.585L51.082,19.215z    M50.92,22.583l-0.664-0.664l1.765-1.765l0.605,0.605C51.698,21.749,50.937,22.564,50.92,22.583z M54.138,19.143l-1.171,1.25   L52.374,19.8l1.658-1.658l0.718,0.718C54.392,18.769,54.339,18.94,54.138,19.143z M46.365,9.916   c-1.761-1.683-4.708-4.5-3.951-6.321c0.782-1.877,3.444-1.5,13.215-1.526c0.093,0,0.187,0,0.28,0c6.476,0,8.211,2.133,7.505,8.717   c0,0.001,0,0.002,0,0.003c-0.106,1.054-0.795,7.781-0.925,8.839c-0.097-0.067-0.227-0.07-0.313,0.017l-2.125,2.125   c-0.158,0.158-0.044,0.427,0.177,0.427c0.169,0,2.079-1.976,2.199-2.095c-0.291,1.792-0.901,2.787-1.858,3.03   c-1.574,0.406-3.106-1.516-4.451-2.943l1.723-1.723l1.309,1.309l-1.03,1.03c-0.098,0.098-0.098,0.256,0,0.354   c0.098,0.098,0.256,0.098,0.354,0l1.03-1.03c0.115,0.115,0.492,0.548,0.652,0.548c0.221,0,0.334-0.269,0.177-0.427l-0.475-0.475   c0.482-0.481,1.444-1.445,1.925-1.927l0.201,0.201c0.049,0.049,0.113,0.073,0.177,0.073s0.128-0.024,0.177-0.073   c0.098-0.098,0.098-0.256,0-0.354l-3.005-3.005c-0.098-0.098-0.256-0.098-0.354,0s-0.098,0.256,0,0.354l2.452,2.452   c0,0,0.065-0.067-1.927,1.925l-1.309-1.309l1.487-1.487c0.098-0.098,0.098-0.256,0-0.354s-0.256-0.098-0.354,0l-1.487,1.487   l-1.674-1.674c-0.098-0.098-0.256-0.098-0.354,0s-0.098,0.256,0,0.354l1.674,1.674l-1.712,1.712l-0.401-0.425   c0.26,0.033,0.363-0.258,0.206-0.415l-1.773-1.773c-0.098-0.098-0.256-0.098-0.354,0c-0.204,0.204,0.022,0.376,0.225,0.579   l-1.658,1.658l-0.585-0.585l1.24-1.24c0.232-0.232-0.119-0.588-0.354-0.354l-1.279,1.279c-0.183-0.032-0.306,0.09-0.274,0.274   l-4.299,4.299c-0.203-0.203-0.375-0.43-0.579-0.226s0.023,0.376,0.226,0.579l-1.39,1.39c-0.383-0.383-0.712-0.005-0.354,0.354   c-0.258,0.258-0.712,0.575-0.467,0.82c0.245,0.245,0.562-0.209,0.82-0.467c0.117,0.117,1.393,1.455,1.559,1.455   c0.221,0,0.334-0.269,0.177-0.427l-1.382-1.382l1.39-1.39c0.118,0.118,1.534,1.598,1.701,1.598c0.055,0,0.107-0.027,0.152-0.063   c-0.837,0.9-1.939,2.065-3.162,2.007c-1.701-0.052-4.662-3.575-5.383-4.828c-1.936-3.362,0.008-5.286,1.615-6.893   c0.277-0.274,5.129-4.985,5.126-5.375C46.518,10.138,46.463,10.009,46.365,9.916z"/><path d="M10.349,64.959l9.271-0.025c1.714-0.012,4.084-0.246,4.863-2.117c0.961-2.313-1.763-5.103-3.814-7.074   c5.504-5.599,9.205-7.871,6.394-12.755c-0.664-1.153-3.845-5.255-6.221-5.329c-2.189-0.04-3.196,1.554-9.504,8.295l-1.849-1.963   c-3.251-3.446-6.433-3.15-7.123,3.412c-0.271,2.583-0.541,5.158-0.8,7.733c-0.763,7.093,1.318,9.825,8.499,9.823   C10.159,64.96,10.254,64.96,10.349,64.959z M10.345,63.959c-0.57,0.002-1.141-0.005-1.703-0.033l1.328-1.328l1.358,1.358   L10.345,63.959z M8.191,60.818l1.426,1.426l-1.311,1.311c-0.079-0.119-1.313-1.338-1.414-1.439L8.191,60.818z M7.955,63.875   C7.127,63.8,6.337,63.654,5.62,63.388l0.918-0.918C6.634,62.566,7.851,63.789,7.955,63.875z M8.243,63.885   c0.003,0.005,0.003,0.011,0.007,0.016c-0.013-0.001-0.025-0.002-0.037-0.003C8.222,63.893,8.233,63.891,8.243,63.885z    M11.411,61.157l1.299,1.299l-1.087,1.087l-1.299-1.299L11.411,61.157z M18.332,63.473l-1.441-1.441l1.977-1.977l1.299,1.299   l-1.815,1.815C18.269,63.253,18.272,63.376,18.332,63.473z M18.09,63.938l-3.183,0.009l-0.014-0.014   c0.061-0.002,0.123-0.023,0.169-0.07l1.476-1.476L18.09,63.938z M14.709,63.508c-0.047,0.047-0.068,0.108-0.07,0.169l-1.221-1.222   l1.595-1.596l1.172,1.172L14.709,63.508z M14.202,63.949l-2.169,0.006l-0.057-0.057l1.087-1.087L14.202,63.949z M21.012,53.95   l-0.815-0.815l1.129-1.129c0.287,0.287,0.724,0.896,0.987,0.633C21.169,53.781,21.622,53.318,21.012,53.95z M23.916,51.041   c-0.534,0.53-1.069,1.063-1.603,1.597c0.097-0.098,0.098-0.256,0-0.353l-0.633-0.633l1.257-1.257   C23.184,50.643,23.665,51.261,23.916,51.041z M23.968,47.499l1.384-1.384c0.116,0.116,1.259,1.318,1.422,1.322   c-0.234,0.662-0.645,1.26-1.118,1.809C25.608,49.107,24.072,47.604,23.968,47.499z M2.56,55.242c0-0.001,0-0.002,0-0.003   c0.26-2.574,0.529-5.148,0.8-7.732c1.146-10.92,7.339,0.871,8.388-0.519c0.022-0.03,0.043-0.061,0.087-0.104   c7.654-8.175,8.17-10.089,11.708-6.55c1.529,1.529,3.91,3.834,3.35,6.617l-1.189-1.189l0.52-0.52   c0.232-0.232-0.119-0.588-0.354-0.354l-0.52,0.52c-0.218-0.218-0.426-0.507-0.643-0.29s0.072,0.425,0.29,0.643l-1.422,1.422   c-0.246-0.05-0.443,0.188-0.139,0.492c0,0.001,0,0.001,0.001,0.001c0.107,0.107,1.799,1.841,1.947,1.874   c-0.394,0.428-1.016,1.042-1.448,1.471c0.086-0.098,0.088-0.245-0.006-0.339l-0.715-0.714c-0.018-0.131-0.072-0.188-0.206-0.206   l-0.914-0.914c-0.232-0.232-0.588,0.119-0.354,0.354l0.84,0.84l-1.257,1.257l-0.586-0.586c-0.232-0.232-0.588,0.119-0.354,0.354   l0.586,0.586l-1.129,1.129l-0.628-0.628c-0.232-0.232-0.588,0.119-0.354,0.354l0.628,0.628c-0.274,0.274-0.796,0.644-0.543,0.897   c0.098,0.098,0.256,0.098,0.354,0l0.543-0.543l0.821,0.821c-0.332,0.347-0.727,0.758-1.06,1.085   c-0.097,0.095-0.151,0.225-0.15,0.36c0.001,0.083,0.028,0.16,0.066,0.231l-0.998,0.998c-0.098,0.098-0.098,0.256,0,0.354   c0.049,0.049,0.113,0.073,0.177,0.073s0.128-0.024,0.177-0.073l0.984-0.984c0.469,0.45,0.997,0.964,1.51,1.512l-0.899,0.899   c-0.098,0.098-0.098,0.256,0,0.354c0.049,0.049,0.113,0.073,0.177,0.073s0.128-0.024,0.177-0.073l0.883-0.883   c0.61,0.681,1.163,1.395,1.529,2.086l-1.919,1.918c-0.098,0.098-0.098,0.256,0,0.354c0.049,0.049,0.113,0.073,0.177,0.073   s0.128-0.024,0.177-0.073l1.79-1.789c0.618,1.56,0.079,3.104-3.847,3.133l-1.116,0.003c0.067-0.097,0.07-0.227-0.017-0.314   l-0.079-0.079c0.04,0.025,0.081,0.052,0.127,0.052c0.064,0,0.128-0.024,0.177-0.073l3.584-3.584c0.098-0.098,0.098-0.256,0-0.354   s-0.256-0.098-0.354,0l-1.416,1.416l-1.299-1.299l0.51-0.51c0.098-0.098,0.098-0.256,0-0.354s-0.256-0.098-0.354,0l-0.51,0.51   l-1.179-1.179c-0.098-0.098-0.256-0.098-0.354,0s-0.098,0.256,0,0.354l1.179,1.179l-1.977,1.977l-1.172-1.172l1.522-1.523   c0.098-0.098,0.098-0.256,0-0.354s-0.256-0.098-0.354,0l-1.522,1.523l-0.374-0.374c-0.098-0.098-0.256-0.098-0.354,0   s-0.098,0.256,0,0.354l0.374,0.374l-1.595,1.596l-1.299-1.299l1.05-1.05c0.098-0.098,0.098-0.256,0-0.354s-0.256-0.098-0.354,0   L9.97,61.891l-1.426-1.426l1.246-1.246c0.098-0.098,0.098-0.256,0-0.354s-0.256-0.098-0.354,0l-2.898,2.898l-1.306-1.306   c-0.098-0.098-0.256-0.098-0.354,0s-0.098,0.256,0,0.354l1.306,1.306l-1.068,1.068C2.17,61.764,2.21,58.496,2.56,55.242z"/><path d="M44.821,14.007c-0.243,0.243,0.197,0.55,0.454,0.807l-1.025,1.025l-0.572-0.572c-0.232-0.232-0.588,0.119-0.354,0.354   l0.572,0.572l-1.065,1.065l-0.808-0.808c-0.232-0.232-0.588,0.119-0.354,0.354l0.808,0.808l-1.045,1.044   c-0.158,0.158-0.044,0.427,0.177,0.427c0.162,0,1.102-0.999,1.221-1.118c0.126,0.126,0.882,0.94,1.043,0.94   c0.221,0,0.334-0.269,0.177-0.427l-0.867-0.866l1.065-1.065c0.119,0.119,0.426,0.477,0.58,0.477c0.221,0,0.334-0.269,0.177-0.427   l-0.404-0.404l1.025-1.025c0.114,0.114,0.509,0.566,0.669,0.566c0.221,0,0.335-0.269,0.177-0.427l-0.492-0.492l0.827-0.827   c0.232-0.232-0.119-0.588-0.354-0.354l-0.827,0.827C45.371,14.204,45.064,13.764,44.821,14.007z"/><path d="M60.602,15.813c0.064,0,0.128-0.024,0.177-0.073l1.03-1.03c0.36,0.36,0.643-0.064,0.422-0.285l-0.069-0.069l0.414-0.414   c0.098-0.098,0.098-0.256,0-0.354s-0.256-0.098-0.354,0l-0.414,0.414l-0.869-0.869c-0.098-0.098-0.256-0.098-0.354,0   s-0.098,0.256,0,0.354l0.869,0.869l-1.03,1.03c-0.098,0.098-0.098,0.256,0,0.354C60.474,15.789,60.538,15.813,60.602,15.813z"/><path d="M60.924,12.756c0.064,0,0.128-0.024,0.177-0.073l1.405-1.406l0.268,0.268c0.049,0.049,0.113,0.073,0.177,0.073   s0.128-0.024,0.177-0.073c0.098-0.098,0.098-0.256,0-0.354l-0.444-0.444c0,0,0-0.001,0-0.001l-0.001,0l-0.67-0.67   c-0.098-0.098-0.256-0.098-0.354,0s-0.098,0.256,0,0.354l0.493,0.493l-1.405,1.406c-0.098,0.098-0.098,0.256,0,0.354   C60.796,12.732,60.86,12.756,60.924,12.756z"/><path d="M60.901,57.539l1.63-1.63c0.125,0.125,0.682,0.74,0.844,0.74c0.221,0,0.334-0.269,0.177-0.427l-0.667-0.667   c0.202-0.202,0.445-0.383,0.237-0.591s-0.388,0.035-0.591,0.237l-0.907-0.907c-0.232-0.232-0.588,0.119-0.354,0.354l0.907,0.907   l-1.63,1.63C60.315,57.418,60.666,57.773,60.901,57.539z"/><path d="M49.216,51.419c0.221,0,0.334-0.269,0.177-0.427l-1.616-1.616l1.812-1.812c0.232-0.232-0.119-0.588-0.354-0.354   l-1.812,1.812l-1.934-1.934l0.879-0.879c0.232-0.232-0.119-0.588-0.354-0.354l-0.879,0.879l-0.512-0.512l1.308-1.308   c0.232-0.232-0.119-0.588-0.354-0.354l-1.308,1.308l-0.998-0.998c-0.232-0.232-0.588,0.119-0.354,0.354l0.998,0.998l-0.256,0.256   c-0.158,0.158-0.044,0.427,0.177,0.427c0.148,0,0.317-0.214,0.433-0.329l0.512,0.512l-0.503,0.503   c-0.158,0.158-0.044,0.427,0.177,0.427c0.064,0,0.128-0.024,0.177-0.073l0.503-0.503l1.934,1.934l-0.812,0.812   c-0.098,0.098-0.098,0.256,0,0.354c0.049,0.049,0.113,0.073,0.177,0.073s0.128-0.024,0.177-0.073l0.812-0.812   C47.541,49.847,49.048,51.419,49.216,51.419z"/><path d="M19.716,23.199c-0.232-0.232-0.588,0.119-0.354,0.354l1.058,1.058l-0.298,0.298c-0.158,0.158-0.044,0.427,0.177,0.427   c0.153,0,0.355-0.251,0.475-0.371c0.116,0.116,1.118,1.177,1.281,1.177c0.221,0,0.334-0.269,0.177-0.427l-1.104-1.104l1.499-1.499   c0.117,0.117,1.34,1.402,1.505,1.402c0.221,0,0.334-0.269,0.177-0.427l-1.329-1.329l0.854-0.854   c0.232-0.232-0.119-0.588-0.354-0.354l-0.854,0.854l-0.536-0.536c-0.232-0.232-0.588,0.119-0.354,0.354l0.536,0.536l-1.499,1.499   L19.716,23.199z"/><path d="M25.504,22.75c0.064,0,0.128-0.024,0.177-0.073c0.098-0.098,0.098-0.256,0-0.354l-2.069-2.069   c-0.232-0.232-0.588,0.119-0.354,0.354C23.377,20.727,25.335,22.75,25.504,22.75z"/><path d="M24.648,19.622c-0.209,0.209-0.46,0.395-0.251,0.604s0.395-0.042,0.604-0.251c0.126,0.126,0.933,0.991,1.094,0.991   c0.221,0,0.334-0.269,0.177-0.427l-0.918-0.918c0.233-0.233,0.579-0.475,0.35-0.704s-0.471,0.117-0.704,0.35l-1.106-1.106   c-0.232-0.232-0.588,0.119-0.354,0.354L24.648,19.622z"/><path d="M4.052,10.039h0.7v1.59h-0.51c-0.138,0-0.25,0.112-0.25,0.25s0.112,0.25,0.25,0.25h0.51v2.35H4.147   c-0.138,0-0.25,0.112-0.25,0.25s0.112,0.25,0.25,0.25h0.605v2.281c0,0.138,0.112,0.25,0.25,0.25s0.25-0.112,0.25-0.25v-2.281h1.207   c0.138,0,0.25-0.112,0.25-0.25s-0.112-0.25-0.25-0.25H5.252v-2.35h1.462c0.138,0,0.25-0.112,0.25-0.25s-0.112-0.25-0.25-0.25H5.252   v-1.59h1.557c0.138,0,0.25-0.112,0.25-0.25s-0.112-0.25-0.25-0.25H5.252V8.173c0-0.138-0.112-0.25-0.25-0.25s-0.25,0.112-0.25,0.25   v1.365h-0.7c-0.138,0-0.25,0.112-0.25,0.25S3.913,10.039,4.052,10.039z"/></g></svg>